# xmcd
#
# Track frame offsets:
#	150
#	16875
#	35625
#	51675
#	67875
#	90225
#	107925
#	127050
#	144525
#	164850
#	186975
#	206550
#	229050
#
# Disc length: 3292 seconds
#
# Revision: 1
# Processed by: cddbd v1.5.2PL0 Copyright (c) Steve Scherf et al.
# Submitted via: EZCDAudioConverter 5.1.1.1
#
DISCID=c20cda0d
DTITLE=Pino Daniele - On the road again (Canzoni da viaggio)
DYEAR=2016
DGENRE=Blues
TTITLE0=A testa in giù
TTITLE1=Anime che girano
TTITLE2=Basta 'na jurnata 'e sole
TTITLE3=Back home
TTITLE4=Tra la piazza e il blues
TTITLE5=Niente è come prima
TTITLE6=Dimentica
TTITLE7='A rrobba mia
TTITLE8=Ferryboat
TTITLE9=Ue man!
TTITLE10=Me so' mbriacato 'e te forever
TTITLE11=Neve al sole
TTITLE12=Piedi nudi
EXTD=
EXTT0=
EXTT1=
EXTT2=
EXTT3=
EXTT4=
EXTT5=
EXTT6=
EXTT7=
EXTT8=
EXTT9=
EXTT10=
EXTT11=
EXTT12=
PLAYORDER=
